<svg xmlns="http://www.w3.org/2000/svg" width="151.425" height="153.987" viewBox="0 0 151.425 153.987"><path d="M151.172.752a2.564,2.564,0,0,0-3.629,0l-9.514,9.514H78.272L3.15,86.007a9.059,9.059,0,0,0,0,12.807l52.526,52.526a9.071,9.071,0,0,0,12.833-.026L141.658,76.19V13.9l9.514-9.514A2.564,2.564,0,0,0,151.172.752ZM136.525,74.106l-71.67,73.605a3.928,3.928,0,0,1-5.549,0L6.779,95.185a3.931,3.931,0,0,1,.008-5.557L80.413,15.4H132.9l-12.4,12.4a12.871,12.871,0,1,0,3.629,3.629l12.4-12.4ZM121.126,38.5a7.7,7.7,0,1,1-7.7-7.7,7.61,7.61,0,0,1,3.3.773l-5.113,5.113a2.566,2.566,0,1,0,3.629,3.629l5.113-5.113A7.573,7.573,0,0,1,121.126,38.5Z" transform="translate(-0.499 0)" fill="#818181"/></svg>