<svg xmlns="http://www.w3.org/2000/svg" xmlns:xlink="http://www.w3.org/1999/xlink" width="281" height="323.336" viewBox="0 0 281 323.336"><defs><clipPath id="a"><rect width="281" height="323.336" transform="translate(580 159)" fill="#fff"/></clipPath></defs><g transform="translate(-580 -159)" clip-path="url(#a)"><g transform="translate(580 200.241)"><path d="M262.183,93.091q-18.816-23.127-51.118-36.536T140.5,43.148q-38.261,0-70.564,13.407T18.817,93.091Q0,116.219,0,143.5q0,23.52,14.19,44.066T53,222.068a100.091,100.091,0,0,1-4.079,11.918q-2.352,5.644-4.233,9.253a63.64,63.64,0,0,1-5.1,7.994q-3.212,4.393-4.86,6.2t-5.41,5.958q-3.761,4.153-4.86,5.411a11.043,11.043,0,0,0-1.255,1.414q-1.1,1.331-1.1,1.329l-.941,1.411c-.523.78-.758,1.278-.707,1.485a4.166,4.166,0,0,1-.313,1.568,2.067,2.067,0,0,0,.078,1.883v.158a7.991,7.991,0,0,0,2.508,4.312A6.281,6.281,0,0,0,26.969,284h.785a118.237,118.237,0,0,0,17.876-3.449A171.364,171.364,0,0,0,117.763,242.6a214.411,214.411,0,0,0,22.736,1.254q38.261,0,70.564-13.409t51.118-36.533Q281,170.789,281,143.5T262.183,93.091Zm-17.641,90.4q-16.391,18.5-44.222,29.4a162.678,162.678,0,0,1-59.823,10.9,177.039,177.039,0,0,1-20.384-1.256l-8.938-.938-6.743,5.96A154.611,154.611,0,0,1,61.31,254.369,112.5,112.5,0,0,0,72.287,227.4l4.233-15.055-13.642-7.838q-20.385-11.61-31.6-27.524T20.071,143.505q0-21.483,16.386-39.986t44.221-29.4a162.607,162.607,0,0,1,59.822-10.9,162.6,162.6,0,0,1,59.819,10.9q27.832,10.9,44.222,29.4T260.927,143.5Q260.927,164.984,244.541,183.491Z" transform="translate(0 -43.148)" fill="#fff"/></g></g></svg>